<svg version="1.2" xmlns="http://www.w3.org/2000/svg" viewBox="0 -1 750 501" width="750" height="501"><defs><linearGradient id="a" x2="1" gradientUnits="userSpaceOnUse" gradientTransform="matrix(453.037 -456.333 394.202 391.354 34.759 266.13)"><stop offset=".002" stop-color="rgb(214, 198, 76)"/><stop offset="1" stop-color="rgb(255, 35, 35)"/></linearGradient></defs><path fill-rule="evenodd" d="M750 396.3c-38.2-32.9-96.1-41-141.8-19.7-24.7 11.4-45.3 30.2-68.4 44.7-23 14.4-51.3 24.8-77.4 16.8-25.7-7.8-43.2-31.5-67-44.2-19.8-10.5-42.9-12.8-65.3-15-22.3-2.3-45.4-4.9-65-15.9-19.5-11.1-34.8-33-31.1-55.1 6-36 53.8-50.2 66.5-84.3 4.8-12.8 4-27.1 8.9-39.9 8.3-21.4 31.1-33.8 53.4-39 22.4-5.3 45.8-5.1 68.1-10.6 22.3-5.6 44.8-18.7 52.2-40.5 4.6-13.3 3-28 6.5-41.6 11-43.2 55.9-50.4 86.1-52H750zm-362.3-300c-3.1 1.7-6.5 3.8-7.6 7.1-1.1 3.1.2 6.7 2.4 9.1 2.3 2.3 5.3 3.8 8.4 4.9 23 8.6 51.1 1.1 66.8-17.8 4.1-4.9 7.5-10.7 8.4-17 1-6.3-.7-13.3-5.5-17.6-10.7-9.8-22 3.1-31.4 8.3q-20.7 11.5-41.5 23m-55.8 298.6c-10.9 2.7-20.8 13.2-18.4 24.2 1.2 5.7 5.4 10.4 10.3 13.5 5 3 10.6 4.6 16.3 6q14.3 3.6 28.8 5.9c9.9 1.6 21.8 1.9 28-6 5.7-7.5 2.9-18.8-3.7-25.5-12.9-13.2-43.5-22.4-61.3-18.1m270.9 8.6c-11 5.1-54.5 33.5-23.4 42 5.9 1.6 12.1.5 18.1-.6q36.2-6.6 72.5-13.2c5.5-1 11.6-2.3 14.9-6.8 3.7-5.2 2.3-12.8-1.8-17.6-4.2-4.8-10.3-7.4-16.4-9.1-21.1-6-44.1-3.7-63.9 5.3" style="fill:url(#a)"/></svg>